<svg width="937" height="229" viewBox="0 0 937 229" fill="none" xmlns="http://www.w3.org/2000/svg">
<g filter="url(#filter0_d_416_2)">
<path d="M54.256 66C51.6107 66 50.288 64.6773 50.288 62.032V25.168C50.288 22.5227 51.6107 21.2 54.256 21.2H69.808C72.1547 21.2 74.2667 21.6267 76.144 22.48C78.064 23.3333 79.5787 24.6133 80.688 26.32C81.84 27.984 82.416 30.0533 82.416 32.528C82.416 35.1733 81.8187 37.3707 80.624 39.12C79.472 40.8693 78 42.0213 76.208 42.576C77.7013 42.7893 79.0453 43.408 80.24 44.432C81.4773 45.4133 82.4587 46.7147 83.184 48.336C83.9093 49.9573 84.272 51.792 84.272 53.84C84.272 58.064 82.992 61.1573 80.432 63.12C77.9147 65.04 74.5653 66 70.384 66H54.256ZM58.608 58.32H69.232C71.2373 58.32 72.752 57.872 73.776 56.976C74.8 56.08 75.312 54.6507 75.312 52.688C75.312 50.8107 74.7147 49.424 73.52 48.528C72.3253 47.5893 70.896 47.12 69.232 47.12H58.608V58.32ZM58.608 39.376H68.144C71.6 39.376 73.328 37.5413 73.328 33.872C73.328 32.208 72.8587 30.9707 71.92 30.16C71.024 29.3067 69.7653 28.88 68.144 28.88H58.608V39.376ZM95.6415 66C92.9535 66 91.6095 64.592 91.6095 61.776V39.376C91.6095 36.56 92.9535 35.152 95.6415 35.152C98.3295 35.152 99.6735 36.56 99.6735 39.376V61.776C99.6735 64.592 98.3295 66 95.6415 66ZM95.5775 30.544C94.2122 30.544 93.0388 30.0533 92.0575 29.072C91.1188 28.0907 90.6495 26.9173 90.6495 25.552C90.6495 24.1867 91.1188 23.0347 92.0575 22.096C93.0388 21.1147 94.2122 20.624 95.5775 20.624C96.9428 20.624 98.0948 21.1147 99.0335 22.096C100.015 23.0347 100.506 24.1867 100.506 25.552C100.506 26.9173 100.015 28.0907 99.0335 29.072C98.0948 30.0533 96.9428 30.544 95.5775 30.544ZM121.532 66.704C117.009 66.704 113.34 65.3813 110.524 62.736C107.708 60.048 106.299 55.9947 106.299 50.576C106.299 47.2053 106.918 44.3253 108.156 41.936C109.436 39.504 111.185 37.648 113.404 36.368C115.622 35.0453 118.182 34.384 121.083 34.384C123.985 34.384 126.438 35.0453 128.444 36.368C130.492 37.6907 132.049 39.3973 133.116 41.488C134.182 43.536 134.716 45.712 134.716 48.016C134.716 49.8507 134.353 51.024 133.628 51.536C132.902 52.048 131.857 52.304 130.492 52.304H114.236C114.449 55.1627 115.217 57.1253 116.54 58.192C117.905 59.216 119.612 59.728 121.66 59.728C123.921 59.728 125.713 59.0667 127.036 57.744C128.017 56.7627 128.913 56.1227 129.724 55.824C130.577 55.5253 131.473 55.7173 132.412 56.4C133.393 57.0827 133.926 57.9573 134.012 59.024C134.14 60.048 133.692 61.1147 132.668 62.224C131.217 63.8027 129.553 64.9547 127.676 65.68C125.841 66.3627 123.793 66.704 121.532 66.704ZM114.556 46.16H126.78C126.012 42.4907 124.07 40.656 120.956 40.656C119.249 40.656 117.862 41.0827 116.796 41.936C115.729 42.7893 114.982 44.1973 114.556 46.16ZM145.182 66C142.494 66 141.15 64.592 141.15 61.776V39.376C141.15 36.56 142.344 35.152 144.734 35.152C147.166 35.152 148.446 35.728 148.574 36.88L148.766 38.608C149.619 37.4987 150.707 36.5173 152.03 35.664C153.395 34.8107 154.995 34.384 156.83 34.384C160.03 34.384 162.632 35.408 164.638 37.456C166.686 39.504 167.71 42.5333 167.71 46.544V61.776C167.71 64.592 166.366 66 163.678 66C160.99 66 159.646 64.592 159.646 61.776V48.528C159.646 46.2667 159.198 44.56 158.302 43.408C157.448 42.256 156.275 41.68 154.782 41.68C153.16 41.68 151.816 42.2773 150.75 43.472C149.726 44.624 149.214 46.4587 149.214 48.976V61.776C149.214 64.592 147.87 66 145.182 66ZM186.762 66.128C185.695 66.128 184.671 65.8507 183.69 65.296C182.751 64.6987 182.069 63.824 181.642 62.672L173.13 40.016C172.575 38.5227 172.511 37.3493 172.938 36.496C173.407 35.6 174.41 35.152 175.946 35.152C178.421 35.152 180.042 36.2827 180.81 38.544L186.762 55.824L192.842 38.544C193.653 36.2827 195.253 35.152 197.642 35.152C198.922 35.152 199.775 35.6 200.202 36.496C200.671 37.3493 200.629 38.5227 200.074 40.016L191.882 62.608C191.455 63.8027 190.751 64.6987 189.77 65.296C188.831 65.8507 187.829 66.128 186.762 66.128ZM219.032 66.704C214.509 66.704 210.84 65.3813 208.024 62.736C205.208 60.048 203.799 55.9947 203.799 50.576C203.799 47.2053 204.418 44.3253 205.656 41.936C206.936 39.504 208.685 37.648 210.904 36.368C213.122 35.0453 215.682 34.384 218.583 34.384C221.485 34.384 223.938 35.0453 225.944 36.368C227.992 37.6907 229.549 39.3973 230.616 41.488C231.682 43.536 232.216 45.712 232.216 48.016C232.216 49.8507 231.853 51.024 231.128 51.536C230.402 52.048 229.357 52.304 227.992 52.304H211.736C211.949 55.1627 212.717 57.1253 214.04 58.192C215.405 59.216 217.112 59.728 219.16 59.728C221.421 59.728 223.213 59.0667 224.536 57.744C225.517 56.7627 226.413 56.1227 227.224 55.824C228.077 55.5253 228.973 55.7173 229.912 56.4C230.893 57.0827 231.426 57.9573 231.512 59.024C231.64 60.048 231.192 61.1147 230.168 62.224C228.717 63.8027 227.053 64.9547 225.176 65.68C223.341 66.3627 221.293 66.704 219.032 66.704ZM212.056 46.16H224.28C223.512 42.4907 221.57 40.656 218.456 40.656C216.749 40.656 215.362 41.0827 214.296 41.936C213.229 42.7893 212.482 44.1973 212.056 46.16ZM242.682 66C239.994 66 238.65 64.592 238.65 61.776V39.376C238.65 36.56 239.844 35.152 242.234 35.152C244.666 35.152 245.946 35.728 246.074 36.88L246.266 38.608C247.119 37.4987 248.207 36.5173 249.53 35.664C250.895 34.8107 252.495 34.384 254.33 34.384C257.53 34.384 260.132 35.408 262.138 37.456C264.186 39.504 265.21 42.5333 265.21 46.544V61.776C265.21 64.592 263.866 66 261.178 66C258.49 66 257.146 64.592 257.146 61.776V48.528C257.146 46.2667 256.698 44.56 255.802 43.408C254.948 42.256 253.775 41.68 252.282 41.68C250.66 41.68 249.316 42.2773 248.25 43.472C247.226 44.624 246.714 46.4587 246.714 48.976V61.776C246.714 64.592 245.37 66 242.682 66ZM277.704 66C275.016 66 273.672 64.592 273.672 61.776V39.376C273.672 36.56 275.016 35.152 277.704 35.152C280.392 35.152 281.736 36.56 281.736 39.376V61.776C281.736 64.592 280.392 66 277.704 66ZM277.64 30.544C276.275 30.544 275.101 30.0533 274.12 29.072C273.181 28.0907 272.712 26.9173 272.712 25.552C272.712 24.1867 273.181 23.0347 274.12 22.096C275.101 21.1147 276.275 20.624 277.64 20.624C279.005 20.624 280.157 21.1147 281.096 22.096C282.077 23.0347 282.568 24.1867 282.568 25.552C282.568 26.9173 282.077 28.0907 281.096 29.072C280.157 30.0533 279.005 30.544 277.64 30.544ZM303.402 66.704C300.543 66.704 297.962 66.0853 295.658 64.848C293.397 63.568 291.605 61.7333 290.282 59.344C289.002 56.912 288.362 53.9893 288.362 50.576C288.362 47.12 289.002 44.1973 290.282 41.808C291.605 39.376 293.397 37.5413 295.658 36.304C297.962 35.024 300.543 34.384 303.402 34.384C306.261 34.384 308.714 35.344 310.762 37.264V24.72C310.762 21.904 312.106 20.496 314.794 20.496C317.482 20.496 318.826 21.904 318.826 24.72V61.776C318.826 64.592 317.674 66 315.37 66C313.066 66 311.85 65.5093 311.722 64.528L311.53 63.056C309.354 65.488 306.645 66.704 303.402 66.704ZM303.722 59.408C305.77 59.408 307.477 58.6613 308.842 57.168C310.25 55.632 310.954 53.4347 310.954 50.576C310.954 47.6747 310.25 45.4773 308.842 43.984C307.477 42.448 305.77 41.68 303.722 41.68C301.674 41.68 299.967 42.448 298.602 43.984C297.237 45.4773 296.554 47.6747 296.554 50.576C296.554 53.4347 297.237 55.632 298.602 57.168C299.967 58.6613 301.674 59.408 303.722 59.408ZM339.715 66.704C336.856 66.704 334.275 66.0427 331.97 64.72C329.709 63.3973 327.917 61.52 326.595 59.088C325.315 56.656 324.674 53.8187 324.674 50.576C324.674 47.2907 325.315 44.4533 326.595 42.064C327.917 39.632 329.709 37.7547 331.97 36.432C334.275 35.0667 336.856 34.384 339.715 34.384C342.616 34.384 345.197 35.0667 347.459 36.432C349.72 37.7547 351.491 39.632 352.771 42.064C354.093 44.4533 354.755 47.2907 354.755 50.576C354.755 53.8187 354.093 56.656 352.771 59.088C351.491 61.52 349.72 63.3973 347.459 64.72C345.197 66.0427 342.616 66.704 339.715 66.704ZM339.715 59.408C341.763 59.408 343.427 58.6613 344.707 57.168C346.029 55.632 346.691 53.4347 346.691 50.576C346.691 47.6747 346.029 45.4773 344.707 43.984C343.427 42.448 341.763 41.68 339.715 41.68C337.667 41.68 336.003 42.448 334.723 43.984C333.485 45.4773 332.867 47.6747 332.867 50.576C332.867 53.4347 333.485 55.632 334.723 57.168C336.003 58.6613 337.667 59.408 339.715 59.408ZM371.85 66.64C370.058 66.64 368.308 66.4267 366.602 66C364.938 65.616 363.359 64.9547 361.866 64.016C360.671 63.248 360.031 62.3733 359.946 61.392C359.86 60.368 360.223 59.408 361.034 58.512C361.844 57.6587 362.676 57.2533 363.53 57.296C364.426 57.296 365.471 57.6373 366.666 58.32C368.33 59.216 370.207 59.664 372.298 59.664C373.919 59.664 375.05 59.472 375.69 59.088C376.33 58.6613 376.65 57.8933 376.65 56.784C376.65 56.3147 376.479 55.9093 376.138 55.568C375.839 55.184 375.178 54.8427 374.154 54.544C373.172 54.2027 371.679 53.84 369.674 53.456C366.559 52.8587 364.148 51.8347 362.442 50.384C360.778 48.9333 359.946 46.7573 359.946 43.856C359.946 41.936 360.458 40.272 361.482 38.864C362.506 37.4133 363.892 36.304 365.642 35.536C367.434 34.7253 369.439 34.32 371.658 34.32C374.687 34.32 377.418 34.8747 379.85 35.984C381.13 36.624 381.855 37.4347 382.026 38.416C382.239 39.3973 381.983 40.3573 381.258 41.296C380.532 42.2347 379.722 42.7253 378.826 42.768C377.972 42.768 376.927 42.5333 375.69 42.064C375.05 41.808 374.41 41.6373 373.77 41.552C373.13 41.424 372.468 41.36 371.786 41.36C370.378 41.36 369.418 41.5947 368.906 42.064C368.394 42.4907 368.138 43.0027 368.138 43.6C368.138 44.0267 368.266 44.4107 368.522 44.752C368.778 45.0933 369.332 45.4347 370.186 45.776C371.039 46.0747 372.362 46.4373 374.154 46.864C377.695 47.6747 380.362 48.912 382.154 50.576C383.988 52.1973 384.906 54.3733 384.906 57.104C384.906 60.304 383.668 62.6933 381.194 64.272C378.762 65.8507 375.647 66.64 371.85 66.64ZM418.71 66.384C415.339 66.5547 412.523 65.8293 410.262 64.208C408.043 62.5867 406.934 60.24 406.934 57.168C406.934 54.992 407.574 53.136 408.854 51.6C410.176 50.0213 411.862 48.8053 413.91 47.952C416 47.056 418.155 46.5867 420.374 46.544C421.355 46.4587 422.294 46.544 423.19 46.8C424.086 47.0133 424.918 47.312 425.686 47.696V45.648C425.686 43.856 425.302 42.704 424.534 42.192C423.766 41.6373 422.678 41.36 421.27 41.36C420.118 41.36 418.923 41.5093 417.686 41.808C416.491 42.064 415.318 42.4267 414.166 42.896C412.928 43.408 411.862 43.6 410.966 43.472C410.112 43.3013 409.387 42.7253 408.79 41.744C408.235 40.7627 408.107 39.824 408.406 38.928C408.704 37.9893 409.494 37.2427 410.774 36.688C412.31 36.0053 413.952 35.4507 415.702 35.024C417.494 34.5973 419.35 34.384 421.27 34.384C425.238 34.384 428.246 35.1947 430.294 36.816C432.342 38.4373 433.366 41.3813 433.366 45.648V59.088C433.366 59.5147 433.387 59.8133 433.43 59.984C433.558 60.5813 433.792 60.9867 434.134 61.2C434.518 61.3707 434.902 61.4987 435.286 61.584C435.67 61.6267 435.99 61.712 436.246 61.84C436.544 61.9253 436.694 62.1813 436.694 62.608C436.694 63.4187 436.459 64.144 435.99 64.784C435.563 65.424 434.838 65.8507 433.814 66.064C433.344 66.1493 432.854 66.2133 432.342 66.256C431.83 66.3413 431.296 66.384 430.742 66.384C428.224 66.384 426.624 65.5307 425.942 63.824C423.979 65.3173 421.568 66.1707 418.71 66.384ZM418.518 59.472C420.779 59.344 422.571 58.9173 423.894 58.192C425.259 57.424 425.899 56.3787 425.814 55.056C425.771 54.0747 425.28 53.4347 424.342 53.136C423.446 52.8373 422.336 52.7307 421.014 52.816C419.051 52.9013 417.494 53.4133 416.342 54.352C415.19 55.248 414.635 56.208 414.678 57.232C414.72 57.9573 415.04 58.5333 415.638 58.96C416.278 59.344 417.238 59.5147 418.518 59.472ZM446.369 66C443.681 66 442.337 64.592 442.337 61.776V24.72C442.337 21.904 443.681 20.496 446.369 20.496C449.057 20.496 450.401 21.904 450.401 24.72V61.776C450.401 64.592 449.057 66 446.369 66ZM492.543 66.192C491.348 66.192 490.239 65.8933 489.215 65.296C488.191 64.6987 487.465 63.8027 487.039 62.608L474.239 26.064C473.684 24.528 473.684 23.3333 474.239 22.48C474.793 21.6267 475.988 21.2 477.823 21.2C480.255 21.2 481.855 22.352 482.623 24.656L492.479 54.8L502.399 24.656C503.167 22.352 504.809 21.2 507.326 21.2C508.863 21.2 509.929 21.648 510.527 22.544C511.167 23.3973 511.231 24.5707 510.719 26.064L497.919 62.608C497.492 63.8027 496.767 64.6987 495.743 65.296C494.719 65.8933 493.652 66.192 492.543 66.192ZM521.385 66C518.612 66 517.226 64.592 517.226 61.776V25.424C517.226 22.608 518.634 21.2 521.45 21.2H537.962C540.778 21.2 543.21 21.6267 545.257 22.48C547.348 23.3333 548.948 24.72 550.058 26.64C551.21 28.56 551.786 31.1413 551.786 34.384C551.786 38.3947 550.911 41.424 549.162 43.472C547.455 45.4773 545.087 46.7573 542.058 47.312L548.714 61.008C549.439 62.4587 549.567 63.6533 549.097 64.592C548.671 65.5307 547.754 66 546.346 66H545.002C542.655 66 541.012 64.9333 540.074 62.8L533.546 47.696H525.546V61.776C525.546 64.592 524.159 66 521.385 66ZM525.546 39.952H536.81C538.73 39.952 540.244 39.5253 541.354 38.672C542.463 37.8187 543.018 36.3893 543.018 34.384C543.018 32.4213 542.463 31.0133 541.354 30.16C540.244 29.3067 538.73 28.88 536.81 28.88H525.546V39.952ZM574.866 66.96C571.666 66.96 568.679 66.4053 565.906 65.296C563.132 64.144 560.764 62.224 558.802 59.536C557.991 58.384 557.714 57.3173 557.97 56.336C558.268 55.3547 558.994 54.544 560.146 53.904C561.255 53.264 562.258 53.0933 563.154 53.392C564.092 53.648 565.01 54.2667 565.906 55.248C566.972 56.4427 568.252 57.3813 569.746 58.064C571.239 58.704 573.052 59.024 575.186 59.024C578.13 59.024 580.092 58.5333 581.074 57.552C582.055 56.528 582.546 55.184 582.546 53.52C582.546 52.4533 582.29 51.536 581.778 50.768C581.308 50 580.242 49.2747 578.578 48.592C576.956 47.8667 574.439 47.0987 571.026 46.288C566.887 45.3067 563.836 43.728 561.874 41.552C559.911 39.376 558.93 36.6667 558.93 33.424C558.93 30.736 559.57 28.3893 560.85 26.384C562.13 24.3787 563.922 22.8213 566.226 21.712C568.572 20.56 571.324 19.984 574.482 19.984C577.81 19.984 580.69 20.5813 583.122 21.776C585.596 22.9707 587.623 24.464 589.201 26.256C590.055 27.28 590.375 28.304 590.162 29.328C589.948 30.3093 589.308 31.2053 588.242 32.016C587.175 32.8267 586.172 33.1467 585.234 32.976C584.295 32.7627 583.356 32.1867 582.418 31.248C581.479 30.3093 580.37 29.52 579.09 28.88C577.81 28.24 576.231 27.92 574.354 27.92C572.348 27.92 570.706 28.3467 569.426 29.2C568.188 30.0107 567.57 31.2907 567.57 33.04C567.57 33.7227 567.74 34.4267 568.082 35.152C568.466 35.8347 569.319 36.5173 570.642 37.2C572.007 37.8827 574.162 38.5867 577.106 39.312C582.098 40.5067 585.703 42.2987 587.922 44.688C590.183 47.0347 591.314 49.936 591.314 53.392C591.314 57.7867 589.82 61.1573 586.833 63.504C583.89 65.808 579.9 66.96 574.866 66.96ZM617.357 67.088C613.304 67.088 609.677 66.128 606.477 64.208C603.277 62.288 600.76 59.5787 598.925 56.08C597.133 52.5387 596.237 48.3787 596.237 43.6C596.237 38.7787 597.133 34.6187 598.925 31.12C600.76 27.5787 603.277 24.848 606.477 22.928C609.677 20.9653 613.304 19.984 617.357 19.984C621.41 19.984 625.016 20.9653 628.173 22.928C631.373 24.848 633.869 27.5787 635.661 31.12C637.496 34.6187 638.413 38.7787 638.413 43.6C638.413 48.3787 637.496 52.5387 635.661 56.08C633.869 59.5787 631.373 62.288 628.173 64.208C625.016 66.128 621.41 67.088 617.357 67.088ZM617.357 59.024C619.917 59.024 622.114 58.384 623.949 57.104C625.826 55.7813 627.256 53.968 628.237 51.664C629.261 49.36 629.773 46.672 629.773 43.6C629.773 40.4853 629.261 37.776 628.237 35.472C627.256 33.168 625.826 31.376 623.949 30.096C622.114 28.7733 619.917 28.112 617.357 28.112C614.84 28.112 612.642 28.7733 610.765 30.096C608.93 31.376 607.501 33.168 606.477 35.472C605.453 37.776 604.941 40.4853 604.941 43.6C604.941 46.672 605.453 49.36 606.477 51.664C607.501 53.968 608.93 55.7813 610.765 57.104C612.642 58.384 614.84 59.024 617.357 59.024ZM678.98 66.192C677.785 66.192 676.676 65.8933 675.652 65.296C674.628 64.6987 673.903 63.8027 673.476 62.608L660.676 26.064C660.121 24.528 660.121 23.3333 660.676 22.48C661.231 21.6267 662.425 21.2 664.26 21.2C666.692 21.2 668.292 22.352 669.06 24.656L678.916 54.8L688.836 24.656C689.604 22.352 691.247 21.2 693.764 21.2C695.3 21.2 696.367 21.648 696.964 22.544C697.604 23.3973 697.668 24.5707 697.156 26.064L684.356 62.608C683.929 63.8027 683.204 64.6987 682.18 65.296C681.156 65.8933 680.089 66.192 678.98 66.192ZM708.079 66C705.391 66 704.047 64.592 704.047 61.776V39.376C704.047 36.56 705.391 35.152 708.079 35.152C710.767 35.152 712.111 36.56 712.111 39.376V61.776C712.111 64.592 710.767 66 708.079 66ZM708.015 30.544C706.65 30.544 705.476 30.0533 704.495 29.072C703.556 28.0907 703.087 26.9173 703.087 25.552C703.087 24.1867 703.556 23.0347 704.495 22.096C705.476 21.1147 706.65 20.624 708.015 20.624C709.38 20.624 710.532 21.1147 711.471 22.096C712.452 23.0347 712.943 24.1867 712.943 25.552C712.943 26.9173 712.452 28.0907 711.471 29.072C710.532 30.0533 709.38 30.544 708.015 30.544ZM724.369 66C721.681 66 720.337 64.592 720.337 61.776V39.376C720.337 36.56 721.745 35.152 724.561 35.152C725.457 35.152 726.268 35.3867 726.993 35.856C727.718 36.2827 728.081 37.1147 728.081 38.352V39.312C728.849 37.8187 730.022 36.624 731.601 35.728C733.18 34.832 734.844 34.384 736.593 34.384C737.958 34.384 739.004 34.8107 739.729 35.664C740.454 36.4747 740.817 37.52 740.817 38.8C740.817 39.9947 740.497 40.8907 739.857 41.488C739.217 42.0427 738.534 42.2773 737.809 42.192C737.468 42.1493 737.084 42.128 736.657 42.128C736.273 42.0853 735.846 42.064 735.377 42.064C733.414 42.064 731.75 42.704 730.385 43.984C729.062 45.2213 728.401 47.056 728.401 49.488V61.776C728.401 64.592 727.057 66 724.369 66ZM757.573 66.704C755.525 66.704 753.776 66.4693 752.325 66C750.917 65.5733 749.829 64.7413 749.061 63.504C748.336 62.2667 747.973 60.5173 747.973 58.256V42.064H746.437C743.621 42.064 742.213 40.912 742.213 38.608C742.213 37.4987 742.512 36.6453 743.109 36.048C743.706 35.4507 744.794 35.152 746.373 35.152H747.973V28.688C747.973 27.3227 748.314 26.2773 748.997 25.552C749.722 24.8267 750.725 24.464 752.005 24.464C754.65 24.464 755.973 25.872 755.973 28.688V35.152H760.069C762.885 35.152 764.293 36.304 764.293 38.608C764.293 40.912 762.906 42.064 760.133 42.064H755.973V56.144C755.973 57.4667 756.293 58.3627 756.933 58.832C757.616 59.3013 758.576 59.536 759.813 59.536C761.264 59.536 762.373 59.7493 763.141 60.176C763.909 60.56 764.293 61.456 764.293 62.864C764.293 64.016 763.973 64.8693 763.333 65.424C762.693 65.9787 761.861 66.32 760.837 66.448C759.813 66.6187 758.725 66.704 757.573 66.704ZM779.955 66.704C776.755 66.704 774.131 65.68 772.083 63.632C770.078 61.584 769.075 58.5547 769.075 54.544V39.376C769.075 36.56 770.419 35.152 773.107 35.152C775.795 35.152 777.139 36.56 777.139 39.376V52.624C777.139 54.8427 777.587 56.528 778.483 57.68C779.379 58.832 780.552 59.408 782.003 59.408C783.624 59.408 784.947 58.832 785.971 57.68C787.038 56.4853 787.571 54.6293 787.571 52.112V39.376C787.571 36.56 788.915 35.152 791.603 35.152C794.291 35.152 795.635 36.56 795.635 39.376V61.776C795.635 64.592 794.44 66 792.051 66C789.662 66 788.403 65.424 788.275 64.272L788.019 62.544C787.208 63.6107 786.12 64.5707 784.755 65.424C783.432 66.2773 781.832 66.704 779.955 66.704ZM813.647 66.384C810.276 66.5547 807.46 65.8293 805.199 64.208C802.98 62.5867 801.871 60.24 801.871 57.168C801.871 54.992 802.511 53.136 803.791 51.6C805.114 50.0213 806.799 48.8053 808.847 47.952C810.938 47.056 813.092 46.5867 815.311 46.544C816.292 46.4587 817.231 46.544 818.127 46.8C819.023 47.0133 819.855 47.312 820.623 47.696V45.648C820.623 43.856 820.239 42.704 819.471 42.192C818.703 41.6373 817.615 41.36 816.207 41.36C815.055 41.36 813.86 41.5093 812.623 41.808C811.428 42.064 810.255 42.4267 809.103 42.896C807.866 43.408 806.799 43.6 805.903 43.472C805.05 43.3013 804.324 42.7253 803.727 41.744C803.172 40.7627 803.044 39.824 803.343 38.928C803.642 37.9893 804.431 37.2427 805.711 36.688C807.247 36.0053 808.89 35.4507 810.639 35.024C812.431 34.5973 814.287 34.384 816.207 34.384C820.175 34.384 823.183 35.1947 825.231 36.816C827.279 38.4373 828.303 41.3813 828.303 45.648V59.088C828.303 59.5147 828.324 59.8133 828.367 59.984C828.495 60.5813 828.73 60.9867 829.071 61.2C829.455 61.3707 829.839 61.4987 830.223 61.584C830.607 61.6267 830.927 61.712 831.183 61.84C831.482 61.9253 831.631 62.1813 831.631 62.608C831.631 63.4187 831.396 64.144 830.927 64.784C830.5 65.424 829.775 65.8507 828.751 66.064C828.282 66.1493 827.791 66.2133 827.279 66.256C826.767 66.3413 826.234 66.384 825.679 66.384C823.162 66.384 821.562 65.5307 820.879 63.824C818.916 65.3173 816.506 66.1707 813.647 66.384ZM813.455 59.472C815.716 59.344 817.508 58.9173 818.831 58.192C820.196 57.424 820.836 56.3787 820.751 55.056C820.708 54.0747 820.218 53.4347 819.279 53.136C818.383 52.8373 817.274 52.7307 815.951 52.816C813.988 52.9013 812.431 53.4133 811.279 54.352C810.127 55.248 809.572 56.208 809.615 57.232C809.658 57.9573 809.978 58.5333 810.575 58.96C811.215 59.344 812.175 59.5147 813.455 59.472ZM841.307 66C838.619 66 837.275 64.592 837.275 61.776V24.72C837.275 21.904 838.619 20.496 841.307 20.496C843.995 20.496 845.339 21.904 845.339 24.72V61.776C845.339 64.592 843.995 66 841.307 66ZM54.448 129C51.6747 129 50.288 127.592 50.288 124.776V88.424C50.288 85.608 51.696 84.2 54.512 84.2H71.024C73.84 84.2 76.272 84.6267 78.32 85.48C80.4107 86.3333 82.0107 87.72 83.12 89.64C84.272 91.56 84.848 94.1413 84.848 97.384C84.848 101.395 83.9733 104.424 82.224 106.472C80.5173 108.477 78.1493 109.757 75.12 110.312L81.776 124.008C82.5013 125.459 82.6293 126.653 82.16 127.592C81.7333 128.531 80.816 129 79.408 129H78.064C75.7173 129 74.0747 127.933 73.136 125.8L66.608 110.696H58.608V124.776C58.608 127.592 57.2213 129 54.448 129ZM58.608 102.952H69.872C71.792 102.952 73.3067 102.525 74.416 101.672C75.5253 100.819 76.08 99.3893 76.08 97.384C76.08 95.4213 75.5253 94.0133 74.416 93.16C73.3067 92.3067 71.792 91.88 69.872 91.88H58.608V102.952ZM102.407 129.704C97.8838 129.704 94.2145 128.381 91.3985 125.736C88.5825 123.048 87.1745 118.995 87.1745 113.576C87.1745 110.205 87.7932 107.325 89.0305 104.936C90.3105 102.504 92.0598 100.648 94.2785 99.368C96.4972 98.0453 99.0572 97.384 101.958 97.384C104.86 97.384 107.313 98.0453 109.319 99.368C111.367 100.691 112.924 102.397 113.991 104.488C115.057 106.536 115.591 108.712 115.591 111.016C115.591 112.851 115.228 114.024 114.503 114.536C113.777 115.048 112.732 115.304 111.367 115.304H95.1105C95.3238 118.163 96.0918 120.125 97.4145 121.192C98.7798 122.216 100.487 122.728 102.535 122.728C104.796 122.728 106.588 122.067 107.911 120.744C108.892 119.763 109.788 119.123 110.599 118.824C111.452 118.525 112.348 118.717 113.287 119.4C114.268 120.083 114.801 120.957 114.887 122.024C115.015 123.048 114.567 124.115 113.543 125.224C112.092 126.803 110.428 127.955 108.551 128.68C106.716 129.363 104.668 129.704 102.407 129.704ZM95.4305 109.16H107.655C106.887 105.491 104.945 103.656 101.831 103.656C100.124 103.656 98.7372 104.083 97.6705 104.936C96.6038 105.789 95.8572 107.197 95.4305 109.16ZM134.76 141.48C129.897 141.48 126.078 140.115 123.305 137.384C122.323 136.36 121.918 135.336 122.089 134.312C122.302 133.331 122.921 132.499 123.945 131.816C125.011 131.091 125.95 130.835 126.76 131.048C127.614 131.304 128.574 131.859 129.641 132.712C130.323 133.181 131.07 133.544 131.881 133.8C132.734 134.056 133.694 134.184 134.76 134.184C137.107 134.184 138.814 133.48 139.881 132.072C140.99 130.664 141.545 128.381 141.545 125.224V124.52C139.582 126.184 137.235 127.016 134.505 127.016C131.774 127.016 129.342 126.483 127.209 125.416C125.118 124.307 123.454 122.643 122.217 120.424C121.022 118.205 120.424 115.453 120.424 112.168C120.424 108.883 121.022 106.152 122.217 103.976C123.454 101.757 125.118 100.115 127.209 99.048C129.342 97.9387 131.774 97.384 134.505 97.384C135.998 97.384 137.491 97.704 138.985 98.344C140.478 98.9413 141.694 100.051 142.633 101.672V101.16C142.633 100.008 142.931 99.2187 143.529 98.792C144.169 98.3653 145.022 98.152 146.089 98.152C148.393 98.152 149.545 99.56 149.545 102.376V125.224C149.545 130.216 148.371 134.163 146.025 137.064C143.721 140.008 139.966 141.48 134.76 141.48ZM135.145 120.04C137.193 120.04 138.857 119.336 140.137 117.928C141.459 116.52 142.121 114.6 142.121 112.168C142.121 109.736 141.459 107.837 140.137 106.472C138.857 105.107 137.193 104.424 135.145 104.424C133.097 104.424 131.497 105.107 130.345 106.472C129.193 107.837 128.617 109.736 128.617 112.168C128.617 114.6 129.193 116.52 130.345 117.928C131.497 119.336 133.097 120.04 135.145 120.04ZM162.017 129C159.329 129 157.985 127.592 157.985 124.776V102.376C157.985 99.56 159.329 98.152 162.017 98.152C164.705 98.152 166.049 99.56 166.049 102.376V124.776C166.049 127.592 164.705 129 162.017 129ZM161.953 93.544C160.587 93.544 159.414 93.0533 158.433 92.072C157.494 91.0907 157.025 89.9173 157.025 88.552C157.025 87.1867 157.494 86.0347 158.433 85.096C159.414 84.1147 160.587 83.624 161.953 83.624C163.318 83.624 164.47 84.1147 165.409 85.096C166.39 86.0347 166.881 87.1867 166.881 88.552C166.881 89.9173 166.39 91.0907 165.409 92.072C164.47 93.0533 163.318 93.544 161.953 93.544ZM185.475 129.64C183.683 129.64 181.933 129.427 180.227 129C178.563 128.616 176.984 127.955 175.491 127.016C174.296 126.248 173.656 125.373 173.571 124.392C173.485 123.368 173.848 122.408 174.659 121.512C175.469 120.659 176.301 120.253 177.155 120.296C178.051 120.296 179.096 120.637 180.291 121.32C181.955 122.216 183.832 122.664 185.923 122.664C187.544 122.664 188.675 122.472 189.315 122.088C189.955 121.661 190.275 120.893 190.275 119.784C190.275 119.315 190.104 118.909 189.763 118.568C189.464 118.184 188.803 117.843 187.779 117.544C186.797 117.203 185.304 116.84 183.299 116.456C180.184 115.859 177.773 114.835 176.067 113.384C174.403 111.933 173.571 109.757 173.571 106.856C173.571 104.936 174.083 103.272 175.107 101.864C176.131 100.413 177.517 99.304 179.267 98.536C181.059 97.7253 183.064 97.32 185.283 97.32C188.312 97.32 191.043 97.8747 193.475 98.984C194.755 99.624 195.48 100.435 195.651 101.416C195.864 102.397 195.608 103.357 194.883 104.296C194.157 105.235 193.347 105.725 192.451 105.768C191.597 105.768 190.552 105.533 189.315 105.064C188.675 104.808 188.035 104.637 187.395 104.552C186.755 104.424 186.093 104.36 185.411 104.36C184.003 104.36 183.043 104.595 182.531 105.064C182.019 105.491 181.763 106.003 181.763 106.6C181.763 107.027 181.891 107.411 182.147 107.752C182.403 108.093 182.957 108.435 183.811 108.776C184.664 109.075 185.987 109.437 187.779 109.864C191.32 110.675 193.987 111.912 195.779 113.576C197.613 115.197 198.531 117.373 198.531 120.104C198.531 123.304 197.293 125.693 194.819 127.272C192.387 128.851 189.272 129.64 185.475 129.64ZM216.573 129.704C214.525 129.704 212.776 129.469 211.325 129C209.917 128.573 208.829 127.741 208.061 126.504C207.336 125.267 206.973 123.517 206.973 121.256V105.064H205.437C202.621 105.064 201.213 103.912 201.213 101.608C201.213 100.499 201.512 99.6453 202.109 99.048C202.706 98.4507 203.794 98.152 205.373 98.152H206.973V91.688C206.973 90.3227 207.314 89.2773 207.997 88.552C208.722 87.8267 209.725 87.464 211.005 87.464C213.65 87.464 214.973 88.872 214.973 91.688V98.152H219.069C221.885 98.152 223.293 99.304 223.293 101.608C223.293 103.912 221.906 105.064 219.133 105.064H214.973V119.144C214.973 120.467 215.293 121.363 215.933 121.832C216.616 122.301 217.576 122.536 218.813 122.536C220.264 122.536 221.373 122.749 222.141 123.176C222.909 123.56 223.293 124.456 223.293 125.864C223.293 127.016 222.973 127.869 222.333 128.424C221.693 128.979 220.861 129.32 219.837 129.448C218.813 129.619 217.725 129.704 216.573 129.704ZM232.619 129C229.931 129 228.587 127.592 228.587 124.776V102.376C228.587 99.56 229.995 98.152 232.811 98.152C233.707 98.152 234.518 98.3867 235.243 98.856C235.968 99.2827 236.331 100.115 236.331 101.352V102.312C237.099 100.819 238.272 99.624 239.851 98.728C241.43 97.832 243.094 97.384 244.843 97.384C246.208 97.384 247.254 97.8107 247.979 98.664C248.704 99.4747 249.067 100.52 249.067 101.8C249.067 102.995 248.747 103.891 248.107 104.488C247.467 105.043 246.784 105.277 246.059 105.192C245.718 105.149 245.334 105.128 244.907 105.128C244.523 105.085 244.096 105.064 243.627 105.064C241.664 105.064 240 105.704 238.635 106.984C237.312 108.221 236.651 110.056 236.651 112.488V124.776C236.651 127.592 235.307 129 232.619 129ZM257.503 141.48H255.967C254.644 141.395 253.642 140.989 252.959 140.264C252.319 139.539 251.999 138.579 251.999 137.384C251.999 134.995 252.767 133.907 254.303 134.12C254.687 134.163 255.071 134.184 255.455 134.184C255.839 134.227 256.223 134.248 256.607 134.248C257.759 134.248 258.612 134.12 259.167 133.864C259.722 133.651 260.148 133.245 260.447 132.648C260.788 132.093 261.151 131.325 261.535 130.344L262.047 128.936L251.807 103.016C251.252 101.523 251.188 100.349 251.615 99.496C252.042 98.6 252.874 98.152 254.111 98.152H254.623C257.055 98.152 258.655 99.2827 259.423 101.544L265.567 119.272L271.263 101.608C272.031 99.304 273.631 98.152 276.063 98.152C277.428 98.152 278.367 98.6 278.879 99.496C279.391 100.349 279.391 101.523 278.879 103.016L268.383 132.712C267.7 134.632 266.911 136.232 266.015 137.512C265.162 138.835 264.052 139.816 262.687 140.456C261.364 141.139 259.636 141.48 257.503 141.48ZM316.777 129.704C313.918 129.704 311.337 129.043 309.033 127.72C306.772 126.397 304.98 124.52 303.657 122.088C302.377 119.656 301.737 116.819 301.737 113.576C301.737 110.291 302.377 107.453 303.657 105.064C304.98 102.632 306.772 100.755 309.033 99.432C311.337 98.0667 313.918 97.384 316.777 97.384C319.678 97.384 322.26 98.0667 324.521 99.432C326.782 100.755 328.553 102.632 329.833 105.064C331.156 107.453 331.817 110.291 331.817 113.576C331.817 116.819 331.156 119.656 329.833 122.088C328.553 124.52 326.782 126.397 324.521 127.72C322.26 129.043 319.678 129.704 316.777 129.704ZM316.777 122.408C318.825 122.408 320.489 121.661 321.769 120.168C323.092 118.632 323.753 116.435 323.753 113.576C323.753 110.675 323.092 108.477 321.769 106.984C320.489 105.448 318.825 104.68 316.777 104.68C314.729 104.68 313.065 105.448 311.785 106.984C310.548 108.477 309.929 110.675 309.929 113.576C309.929 116.435 310.548 118.632 311.785 120.168C313.065 121.661 314.729 122.408 316.777 122.408ZM344.88 129C342.192 129 340.848 127.592 340.848 124.776V105.064H339.312C336.496 105.064 335.088 103.912 335.088 101.608C335.088 99.304 336.048 98.152 337.968 98.152H340.848V92.84C340.848 89.0427 341.701 86.4187 343.408 84.968C345.115 83.4747 347.696 82.728 351.152 82.728C352.901 82.728 354.331 82.9413 355.44 83.368C356.592 83.7947 357.168 84.7973 357.168 86.376C357.168 87.3147 356.955 88.1467 356.528 88.872C356.144 89.5547 355.312 89.896 354.032 89.896C353.776 89.896 353.456 89.8747 353.072 89.832C352.731 89.7893 352.453 89.768 352.24 89.768C351.088 89.768 350.235 90.1307 349.68 90.856C349.125 91.5813 348.848 92.584 348.848 93.864V98.152H352.944C355.76 98.152 357.168 99.304 357.168 101.608C357.168 103.912 355.781 105.064 353.008 105.064H348.848V124.776C348.848 127.592 347.525 129 344.88 129ZM396.616 129.96C393.416 129.96 390.429 129.405 387.656 128.296C384.882 127.144 382.514 125.224 380.552 122.536C379.741 121.384 379.464 120.317 379.72 119.336C380.018 118.355 380.744 117.544 381.896 116.904C383.005 116.264 384.008 116.093 384.904 116.392C385.842 116.648 386.76 117.267 387.656 118.248C388.722 119.443 390.002 120.381 391.496 121.064C392.989 121.704 394.802 122.024 396.936 122.024C399.88 122.024 401.842 121.533 402.824 120.552C403.805 119.528 404.296 118.184 404.296 116.52C404.296 115.453 404.04 114.536 403.528 113.768C403.058 113 401.992 112.275 400.328 111.592C398.706 110.867 396.189 110.099 392.776 109.288C388.637 108.307 385.586 106.728 383.624 104.552C381.661 102.376 380.68 99.6667 380.68 96.424C380.68 93.736 381.32 91.3893 382.6 89.384C383.88 87.3787 385.672 85.8213 387.976 84.712C390.322 83.56 393.074 82.984 396.232 82.984C399.56 82.984 402.44 83.5813 404.872 84.776C407.346 85.9707 409.373 87.464 410.951 89.256C411.805 90.28 412.125 91.304 411.912 92.328C411.698 93.3093 411.058 94.2053 409.992 95.016C408.925 95.8267 407.922 96.1467 406.984 95.976C406.045 95.7627 405.106 95.1867 404.168 94.248C403.229 93.3093 402.12 92.52 400.84 91.88C399.56 91.24 397.981 90.92 396.104 90.92C394.098 90.92 392.456 91.3467 391.176 92.2C389.938 93.0107 389.32 94.2907 389.32 96.04C389.32 96.7227 389.49 97.4267 389.832 98.152C390.216 98.8347 391.069 99.5173 392.392 100.2C393.757 100.883 395.912 101.587 398.856 102.312C403.848 103.507 407.453 105.299 409.672 107.688C411.933 110.035 413.064 112.936 413.064 116.392C413.064 120.787 411.57 124.157 408.583 126.504C405.64 128.808 401.65 129.96 396.616 129.96ZM433.027 129.704C430.168 129.704 427.587 129.043 425.283 127.72C423.022 126.397 421.23 124.52 419.907 122.088C418.627 119.656 417.987 116.819 417.987 113.576C417.987 110.291 418.627 107.453 419.907 105.064C421.23 102.632 423.022 100.755 425.283 99.432C427.587 98.0667 430.168 97.384 433.027 97.384C435.928 97.384 438.51 98.0667 440.771 99.432C443.032 100.755 444.803 102.632 446.083 105.064C447.406 107.453 448.067 110.291 448.067 113.576C448.067 116.819 447.406 119.656 446.083 122.088C444.803 124.52 443.032 126.397 440.771 127.72C438.51 129.043 435.928 129.704 433.027 129.704ZM433.027 122.408C435.075 122.408 436.739 121.661 438.019 120.168C439.342 118.632 440.003 116.435 440.003 113.576C440.003 110.675 439.342 108.477 438.019 106.984C436.739 105.448 435.075 104.68 433.027 104.68C430.979 104.68 429.315 105.448 428.035 106.984C426.798 108.477 426.179 110.675 426.179 113.576C426.179 116.435 426.798 118.632 428.035 120.168C429.315 121.661 430.979 122.408 433.027 122.408ZM467.402 129.704C464.543 129.704 461.962 129.043 459.658 127.72C457.397 126.397 455.605 124.52 454.282 122.088C453.002 119.656 452.362 116.819 452.362 113.576C452.362 110.291 453.002 107.453 454.282 105.064C455.605 102.632 457.397 100.755 459.658 99.432C461.962 98.0667 464.543 97.384 467.402 97.384C470.943 97.384 473.994 98.3653 476.554 100.328C477.706 101.181 478.218 102.141 478.09 103.208C478.005 104.275 477.45 105.171 476.426 105.896C475.402 106.621 474.506 106.941 473.738 106.856C473.013 106.771 472.053 106.344 470.858 105.576C469.877 104.979 468.725 104.68 467.402 104.68C465.354 104.68 463.69 105.448 462.41 106.984C461.173 108.477 460.554 110.675 460.554 113.576C460.554 116.435 461.173 118.632 462.41 120.168C463.69 121.661 465.354 122.408 467.402 122.408C468.682 122.408 469.791 122.152 470.73 121.64C471.839 120.957 472.799 120.531 473.61 120.36C474.421 120.147 475.338 120.403 476.362 121.128C477.386 121.896 477.962 122.792 478.09 123.816C478.261 124.84 477.813 125.779 476.746 126.632C474.186 128.68 471.071 129.704 467.402 129.704ZM490.454 129C487.766 129 486.422 127.592 486.422 124.776V102.376C486.422 99.56 487.766 98.152 490.454 98.152C493.142 98.152 494.486 99.56 494.486 102.376V124.776C494.486 127.592 493.142 129 490.454 129ZM490.39 93.544C489.025 93.544 487.851 93.0533 486.87 92.072C485.931 91.0907 485.462 89.9173 485.462 88.552C485.462 87.1867 485.931 86.0347 486.87 85.096C487.851 84.1147 489.025 83.624 490.39 83.624C491.755 83.624 492.907 84.1147 493.846 85.096C494.827 86.0347 495.318 87.1867 495.318 88.552C495.318 89.9173 494.827 91.0907 493.846 92.072C492.907 93.0533 491.755 93.544 490.39 93.544ZM513.272 129.384C509.901 129.555 507.085 128.829 504.824 127.208C502.605 125.587 501.496 123.24 501.496 120.168C501.496 117.992 502.136 116.136 503.416 114.6C504.739 113.021 506.424 111.805 508.472 110.952C510.563 110.056 512.717 109.587 514.936 109.544C515.917 109.459 516.856 109.544 517.752 109.8C518.648 110.013 519.48 110.312 520.248 110.696V108.648C520.248 106.856 519.864 105.704 519.096 105.192C518.328 104.637 517.24 104.36 515.832 104.36C514.68 104.36 513.485 104.509 512.248 104.808C511.053 105.064 509.88 105.427 508.728 105.896C507.491 106.408 506.424 106.6 505.528 106.472C504.675 106.301 503.949 105.725 503.352 104.744C502.797 103.763 502.669 102.824 502.968 101.928C503.267 100.989 504.056 100.243 505.336 99.688C506.872 99.0053 508.515 98.4507 510.264 98.024C512.056 97.5973 513.912 97.384 515.832 97.384C519.8 97.384 522.808 98.1947 524.856 99.816C526.904 101.437 527.928 104.381 527.928 108.648V122.088C527.928 122.515 527.949 122.813 527.992 122.984C528.12 123.581 528.355 123.987 528.696 124.2C529.08 124.371 529.464 124.499 529.848 124.584C530.232 124.627 530.552 124.712 530.808 124.84C531.107 124.925 531.256 125.181 531.256 125.608C531.256 126.419 531.021 127.144 530.552 127.784C530.125 128.424 529.4 128.851 528.376 129.064C527.907 129.149 527.416 129.213 526.904 129.256C526.392 129.341 525.859 129.384 525.304 129.384C522.787 129.384 521.187 128.531 520.504 126.824C518.541 128.317 516.131 129.171 513.272 129.384ZM513.08 122.472C515.341 122.344 517.133 121.917 518.456 121.192C519.821 120.424 520.461 119.379 520.376 118.056C520.333 117.075 519.843 116.435 518.904 116.136C518.008 115.837 516.899 115.731 515.576 115.816C513.613 115.901 512.056 116.413 510.904 117.352C509.752 118.248 509.197 119.208 509.24 120.232C509.283 120.957 509.603 121.533 510.2 121.96C510.84 122.344 511.8 122.515 513.08 122.472ZM540.932 129C538.244 129 536.9 127.592 536.9 124.776V87.72C536.9 84.904 538.244 83.496 540.932 83.496C543.62 83.496 544.964 84.904 544.964 87.72V124.776C544.964 127.592 543.62 129 540.932 129ZM69.232 193.088C65.1787 193.088 61.552 192.128 58.352 190.208C55.152 188.288 52.6347 185.579 50.8 182.08C49.008 178.539 48.112 174.379 48.112 169.6C48.112 164.779 49.008 160.619 50.8 157.12C52.6347 153.579 55.152 150.848 58.352 148.928C61.552 146.965 65.1787 145.984 69.232 145.984C73.2853 145.984 76.8907 146.965 80.048 148.928C83.248 150.848 85.744 153.579 87.536 157.12C89.3707 160.619 90.288 164.779 90.288 169.6C90.288 174.379 89.3707 178.539 87.536 182.08C85.744 185.579 83.248 188.288 80.048 190.208C76.8907 192.128 73.2853 193.088 69.232 193.088ZM69.232 185.024C71.792 185.024 73.9893 184.384 75.824 183.104C77.7013 181.781 79.1307 179.968 80.112 177.664C81.136 175.36 81.648 172.672 81.648 169.6C81.648 166.485 81.136 163.776 80.112 161.472C79.1307 159.168 77.7013 157.376 75.824 156.096C73.9893 154.773 71.792 154.112 69.232 154.112C66.7147 154.112 64.5173 154.773 62.64 156.096C60.8053 157.376 59.376 159.168 58.352 161.472C57.328 163.776 56.816 166.485 56.816 169.6C56.816 172.672 57.328 175.36 58.352 177.664C59.376 179.968 60.8053 181.781 62.64 183.104C64.5173 184.384 66.7147 185.024 69.232 185.024ZM100.182 192C97.4935 192 96.1495 190.592 96.1495 187.776V165.376C96.1495 162.56 97.5575 161.152 100.374 161.152C101.27 161.152 102.08 161.387 102.806 161.856C103.531 162.283 103.894 163.115 103.894 164.352V165.312C104.662 163.819 105.835 162.624 107.414 161.728C108.992 160.832 110.656 160.384 112.406 160.384C113.771 160.384 114.816 160.811 115.542 161.664C116.267 162.475 116.63 163.52 116.63 164.8C116.63 165.995 116.31 166.891 115.67 167.488C115.03 168.043 114.347 168.277 113.622 168.192C113.28 168.149 112.896 168.128 112.47 168.128C112.086 168.085 111.659 168.064 111.19 168.064C109.227 168.064 107.563 168.704 106.198 169.984C104.875 171.221 104.214 173.056 104.214 175.488V187.776C104.214 190.592 102.87 192 100.182 192ZM133.385 204.48C128.522 204.48 124.703 203.115 121.93 200.384C120.948 199.36 120.543 198.336 120.714 197.312C120.927 196.331 121.546 195.499 122.57 194.816C123.636 194.091 124.575 193.835 125.385 194.048C126.239 194.304 127.199 194.859 128.266 195.712C128.948 196.181 129.695 196.544 130.506 196.8C131.359 197.056 132.319 197.184 133.385 197.184C135.732 197.184 137.439 196.48 138.506 195.072C139.615 193.664 140.17 191.381 140.17 188.224V187.52C138.207 189.184 135.86 190.016 133.13 190.016C130.399 190.016 127.967 189.483 125.834 188.416C123.743 187.307 122.079 185.643 120.842 183.424C119.647 181.205 119.049 178.453 119.049 175.168C119.049 171.883 119.647 169.152 120.842 166.976C122.079 164.757 123.743 163.115 125.834 162.048C127.967 160.939 130.399 160.384 133.13 160.384C134.623 160.384 136.116 160.704 137.61 161.344C139.103 161.941 140.319 163.051 141.258 164.672V164.16C141.258 163.008 141.556 162.219 142.154 161.792C142.794 161.365 143.647 161.152 144.714 161.152C147.018 161.152 148.17 162.56 148.17 165.376V188.224C148.17 193.216 146.996 197.163 144.65 200.064C142.346 203.008 138.591 204.48 133.385 204.48ZM133.77 183.04C135.818 183.04 137.482 182.336 138.762 180.928C140.084 179.52 140.746 177.6 140.746 175.168C140.746 172.736 140.084 170.837 138.762 169.472C137.482 168.107 135.818 167.424 133.77 167.424C131.722 167.424 130.122 168.107 128.97 169.472C127.818 170.837 127.242 172.736 127.242 175.168C127.242 177.6 127.818 179.52 128.97 180.928C130.122 182.336 131.722 183.04 133.77 183.04ZM166.21 192.384C162.839 192.555 160.023 191.829 157.762 190.208C155.543 188.587 154.434 186.24 154.434 183.168C154.434 180.992 155.074 179.136 156.354 177.6C157.676 176.021 159.362 174.805 161.41 173.952C163.5 173.056 165.655 172.587 167.874 172.544C168.855 172.459 169.794 172.544 170.69 172.8C171.586 173.013 172.418 173.312 173.186 173.696V171.648C173.186 169.856 172.802 168.704 172.034 168.192C171.266 167.637 170.178 167.36 168.77 167.36C167.618 167.36 166.423 167.509 165.186 167.808C163.991 168.064 162.818 168.427 161.666 168.896C160.428 169.408 159.362 169.6 158.466 169.472C157.612 169.301 156.887 168.725 156.29 167.744C155.735 166.763 155.607 165.824 155.906 164.928C156.204 163.989 156.994 163.243 158.274 162.688C159.81 162.005 161.452 161.451 163.202 161.024C164.994 160.597 166.85 160.384 168.77 160.384C172.738 160.384 175.746 161.195 177.794 162.816C179.842 164.437 180.866 167.381 180.866 171.648V185.088C180.866 185.515 180.887 185.813 180.93 185.984C181.058 186.581 181.292 186.987 181.634 187.2C182.018 187.371 182.402 187.499 182.786 187.584C183.17 187.627 183.49 187.712 183.746 187.84C184.044 187.925 184.194 188.181 184.194 188.608C184.194 189.419 183.959 190.144 183.49 190.784C183.063 191.424 182.338 191.851 181.314 192.064C180.844 192.149 180.354 192.213 179.842 192.256C179.33 192.341 178.796 192.384 178.242 192.384C175.724 192.384 174.124 191.531 173.442 189.824C171.479 191.317 169.068 192.171 166.21 192.384ZM166.018 185.472C168.279 185.344 170.071 184.917 171.394 184.192C172.759 183.424 173.399 182.379 173.314 181.056C173.271 180.075 172.78 179.435 171.842 179.136C170.946 178.837 169.836 178.731 168.514 178.816C166.551 178.901 164.994 179.413 163.842 180.352C162.69 181.248 162.135 182.208 162.178 183.232C162.22 183.957 162.54 184.533 163.138 184.96C163.778 185.344 164.738 185.515 166.018 185.472ZM193.869 192C191.181 192 189.837 190.592 189.837 187.776V165.376C189.837 162.56 191.032 161.152 193.421 161.152C195.853 161.152 197.133 161.728 197.261 162.88L197.453 164.608C198.306 163.499 199.394 162.517 200.717 161.664C202.082 160.811 203.682 160.384 205.517 160.384C208.717 160.384 211.32 161.408 213.325 163.456C215.373 165.504 216.397 168.533 216.397 172.544V187.776C216.397 190.592 215.053 192 212.365 192C209.677 192 208.333 190.592 208.333 187.776V174.528C208.333 172.267 207.885 170.56 206.989 169.408C206.136 168.256 204.962 167.68 203.469 167.68C201.848 167.68 200.504 168.277 199.437 169.472C198.413 170.624 197.901 172.459 197.901 174.976V187.776C197.901 190.592 196.557 192 193.869 192ZM228.892 192C226.204 192 224.86 190.592 224.86 187.776V165.376C224.86 162.56 226.204 161.152 228.892 161.152C231.58 161.152 232.924 162.56 232.924 165.376V187.776C232.924 190.592 231.58 192 228.892 192ZM228.828 156.544C227.462 156.544 226.289 156.053 225.308 155.072C224.369 154.091 223.9 152.917 223.9 151.552C223.9 150.187 224.369 149.035 225.308 148.096C226.289 147.115 227.462 146.624 228.828 146.624C230.193 146.624 231.345 147.115 232.284 148.096C233.265 149.035 233.756 150.187 233.756 151.552C233.756 152.917 233.265 154.091 232.284 155.072C231.345 156.053 230.193 156.544 228.828 156.544ZM243.262 192C240.446 192 239.038 190.912 239.038 188.736V188.416C239.038 186.453 239.656 184.704 240.894 183.168L253.31 167.68H243.966C241.15 167.68 239.742 166.592 239.742 164.416C239.742 162.24 241.15 161.152 243.966 161.152H258.622C261.438 161.152 262.846 162.24 262.846 164.416V164.736C262.846 166.741 262.227 168.491 260.99 169.984L248.446 185.408H259.326C262.142 185.408 263.55 186.496 263.55 188.672C263.55 190.891 262.142 192 259.326 192H243.262ZM279.397 192.384C276.026 192.555 273.21 191.829 270.949 190.208C268.73 188.587 267.621 186.24 267.621 183.168C267.621 180.992 268.261 179.136 269.541 177.6C270.864 176.021 272.549 174.805 274.597 173.952C276.688 173.056 278.842 172.587 281.061 172.544C282.042 172.459 282.981 172.544 283.877 172.8C284.773 173.013 285.605 173.312 286.373 173.696V171.648C286.373 169.856 285.989 168.704 285.221 168.192C284.453 167.637 283.365 167.36 281.957 167.36C280.805 167.36 279.61 167.509 278.373 167.808C277.178 168.064 276.005 168.427 274.853 168.896C273.616 169.408 272.549 169.6 271.653 169.472C270.8 169.301 270.074 168.725 269.477 167.744C268.922 166.763 268.794 165.824 269.093 164.928C269.392 163.989 270.181 163.243 271.461 162.688C272.997 162.005 274.64 161.451 276.389 161.024C278.181 160.597 280.037 160.384 281.957 160.384C285.925 160.384 288.933 161.195 290.981 162.816C293.029 164.437 294.053 167.381 294.053 171.648V185.088C294.053 185.515 294.074 185.813 294.117 185.984C294.245 186.581 294.48 186.987 294.821 187.2C295.205 187.371 295.589 187.499 295.973 187.584C296.357 187.627 296.677 187.712 296.933 187.84C297.232 187.925 297.381 188.181 297.381 188.608C297.381 189.419 297.146 190.144 296.677 190.784C296.25 191.424 295.525 191.851 294.501 192.064C294.032 192.149 293.541 192.213 293.029 192.256C292.517 192.341 291.984 192.384 291.429 192.384C288.912 192.384 287.312 191.531 286.629 189.824C284.666 191.317 282.256 192.171 279.397 192.384ZM279.205 185.472C281.466 185.344 283.258 184.917 284.581 184.192C285.946 183.424 286.586 182.379 286.501 181.056C286.458 180.075 285.968 179.435 285.029 179.136C284.133 178.837 283.024 178.731 281.701 178.816C279.738 178.901 278.181 179.413 277.029 180.352C275.877 181.248 275.322 182.208 275.365 183.232C275.408 183.957 275.728 184.533 276.325 184.96C276.965 185.344 277.925 185.515 279.205 185.472ZM313.823 192.704C311.775 192.704 310.026 192.469 308.575 192C307.167 191.573 306.079 190.741 305.311 189.504C304.586 188.267 304.223 186.517 304.223 184.256V168.064H302.687C299.871 168.064 298.463 166.912 298.463 164.608C298.463 163.499 298.762 162.645 299.359 162.048C299.956 161.451 301.044 161.152 302.623 161.152H304.223V154.688C304.223 153.323 304.564 152.277 305.247 151.552C305.972 150.827 306.975 150.464 308.255 150.464C310.9 150.464 312.223 151.872 312.223 154.688V161.152H316.319C319.135 161.152 320.543 162.304 320.543 164.608C320.543 166.912 319.156 168.064 316.383 168.064H312.223V182.144C312.223 183.467 312.543 184.363 313.183 184.832C313.866 185.301 314.826 185.536 316.063 185.536C317.514 185.536 318.623 185.749 319.391 186.176C320.159 186.56 320.543 187.456 320.543 188.864C320.543 190.016 320.223 190.869 319.583 191.424C318.943 191.979 318.111 192.32 317.087 192.448C316.063 192.619 314.975 192.704 313.823 192.704ZM330.829 192C328.141 192 326.797 190.592 326.797 187.776V165.376C326.797 162.56 328.141 161.152 330.829 161.152C333.517 161.152 334.861 162.56 334.861 165.376V187.776C334.861 190.592 333.517 192 330.829 192ZM330.765 156.544C329.4 156.544 328.226 156.053 327.245 155.072C326.306 154.091 325.837 152.917 325.837 151.552C325.837 150.187 326.306 149.035 327.245 148.096C328.226 147.115 329.4 146.624 330.765 146.624C332.13 146.624 333.282 147.115 334.221 148.096C335.202 149.035 335.693 150.187 335.693 151.552C335.693 152.917 335.202 154.091 334.221 155.072C333.282 156.053 332.13 156.544 330.765 156.544ZM356.527 192.704C353.668 192.704 351.087 192.043 348.783 190.72C346.522 189.397 344.73 187.52 343.407 185.088C342.127 182.656 341.487 179.819 341.487 176.576C341.487 173.291 342.127 170.453 343.407 168.064C344.73 165.632 346.522 163.755 348.783 162.432C351.087 161.067 353.668 160.384 356.527 160.384C359.428 160.384 362.01 161.067 364.271 162.432C366.532 163.755 368.303 165.632 369.583 168.064C370.906 170.453 371.567 173.291 371.567 176.576C371.567 179.819 370.906 182.656 369.583 185.088C368.303 187.52 366.532 189.397 364.271 190.72C362.01 192.043 359.428 192.704 356.527 192.704ZM356.527 185.408C358.575 185.408 360.239 184.661 361.519 183.168C362.842 181.632 363.503 179.435 363.503 176.576C363.503 173.675 362.842 171.477 361.519 169.984C360.239 168.448 358.575 167.68 356.527 167.68C354.479 167.68 352.815 168.448 351.535 169.984C350.298 171.477 349.679 173.675 349.679 176.576C349.679 179.435 350.298 181.632 351.535 183.168C352.815 184.661 354.479 185.408 356.527 185.408ZM381.494 192C378.806 192 377.462 190.592 377.462 187.776V165.376C377.462 162.56 378.657 161.152 381.046 161.152C383.478 161.152 384.758 161.728 384.886 162.88L385.078 164.608C385.931 163.499 387.019 162.517 388.342 161.664C389.707 160.811 391.307 160.384 393.142 160.384C396.342 160.384 398.945 161.408 400.95 163.456C402.998 165.504 404.022 168.533 404.022 172.544V187.776C404.022 190.592 402.678 192 399.99 192C397.302 192 395.958 190.592 395.958 187.776V174.528C395.958 172.267 395.51 170.56 394.614 169.408C393.761 168.256 392.587 167.68 391.094 167.68C389.473 167.68 388.129 168.277 387.062 169.472C386.038 170.624 385.526 172.459 385.526 174.976V187.776C385.526 190.592 384.182 192 381.494 192ZM422.725 192.64C420.933 192.64 419.183 192.427 417.477 192C415.813 191.616 414.234 190.955 412.741 190.016C411.546 189.248 410.906 188.373 410.821 187.392C410.735 186.368 411.098 185.408 411.909 184.512C412.719 183.659 413.551 183.253 414.405 183.296C415.301 183.296 416.346 183.637 417.541 184.32C419.205 185.216 421.082 185.664 423.173 185.664C424.794 185.664 425.925 185.472 426.565 185.088C427.205 184.661 427.525 183.893 427.525 182.784C427.525 182.315 427.354 181.909 427.013 181.568C426.714 181.184 426.053 180.843 425.029 180.544C424.047 180.203 422.554 179.84 420.549 179.456C417.434 178.859 415.023 177.835 413.317 176.384C411.653 174.933 410.821 172.757 410.821 169.856C410.821 167.936 411.333 166.272 412.357 164.864C413.381 163.413 414.767 162.304 416.517 161.536C418.309 160.725 420.314 160.32 422.533 160.32C425.562 160.32 428.293 160.875 430.725 161.984C432.005 162.624 432.73 163.435 432.901 164.416C433.114 165.397 432.858 166.357 432.133 167.296C431.407 168.235 430.597 168.725 429.701 168.768C428.847 168.768 427.802 168.533 426.565 168.064C425.925 167.808 425.285 167.637 424.645 167.552C424.005 167.424 423.343 167.36 422.661 167.36C421.253 167.36 420.293 167.595 419.781 168.064C419.269 168.491 419.013 169.003 419.013 169.6C419.013 170.027 419.141 170.411 419.397 170.752C419.653 171.093 420.207 171.435 421.061 171.776C421.914 172.075 423.237 172.437 425.029 172.864C428.57 173.675 431.237 174.912 433.029 176.576C434.863 178.197 435.781 180.373 435.781 183.104C435.781 186.304 434.543 188.693 432.069 190.272C429.637 191.851 426.522 192.64 422.725 192.64Z" fill="white"/>
</g>
<g filter="url(#filter1_d_416_2)">
<path d="M28 22L26 199" stroke="#D5E800" stroke-width="20" stroke-linecap="square"/>
</g>
<defs>
<filter id="filter0_d_416_2" x="33.112" y="8.98389" width="827.227" height="214.496" filterUnits="userSpaceOnUse" color-interpolation-filters="sRGB">
<feFlood flood-opacity="0" result="BackgroundImageFix"/>
<feColorMatrix in="SourceAlpha" type="matrix" values="0 0 0 0 0 0 0 0 0 0 0 0 0 0 0 0 0 0 127 0" result="hardAlpha"/>
<feOffset dy="4"/>
<feGaussianBlur stdDeviation="7.5"/>
<feComposite in2="hardAlpha" operator="out"/>
<feColorMatrix type="matrix" values="0 0 0 0 0 0 0 0 0 0 0 0 0 0 0 0 0 0 1 0"/>
<feBlend mode="normal" in2="BackgroundImageFix" result="effect1_dropShadow_416_2"/>
<feBlend mode="normal" in="SourceGraphic" in2="effect1_dropShadow_416_2" result="shape"/>
</filter>
<filter id="filter1_d_416_2" x="0.887634" y="0.887695" width="52.2247" height="227.225" filterUnits="userSpaceOnUse" color-interpolation-filters="sRGB">
<feFlood flood-opacity="0" result="BackgroundImageFix"/>
<feColorMatrix in="SourceAlpha" type="matrix" values="0 0 0 0 0 0 0 0 0 0 0 0 0 0 0 0 0 0 127 0" result="hardAlpha"/>
<feOffset dy="4"/>
<feGaussianBlur stdDeviation="7.5"/>
<feComposite in2="hardAlpha" operator="out"/>
<feColorMatrix type="matrix" values="0 0 0 0 0.606699 0 0 0 0 0.658333 0 0 0 0 0 0 0 0 1 0"/>
<feBlend mode="normal" in2="BackgroundImageFix" result="effect1_dropShadow_416_2"/>
<feBlend mode="normal" in="SourceGraphic" in2="effect1_dropShadow_416_2" result="shape"/>
</filter>
</defs>
</svg>
